<svg id="visual" viewBox="0 0 900 600" width="900" height="600" xmlns="http://www.w3.org/2000/svg" xmlns:xlink="http://www.w3.org/1999/xlink" version="1.1"><rect x="0" y="0" width="900" height="600" fill="#140021"></rect><path d="M0 282L129 282L129 301L257 301L257 300L386 300L386 335L514 335L514 339L643 339L643 370L771 370L771 314L900 314L900 363L900 601L900 601L771 601L771 601L643 601L643 601L514 601L514 601L386 601L386 601L257 601L257 601L129 601L129 601L0 601Z" fill="#9900ff"></path><path d="M0 421L129 421L129 387L257 387L257 414L386 414L386 432L514 432L514 458L643 458L643 376L771 376L771 404L900 404L900 383L900 601L900 601L771 601L771 601L643 601L643 601L514 601L514 601L386 601L386 601L257 601L257 601L129 601L129 601L0 601Z" fill="#7700c6"></path><path d="M0 464L129 464L129 513L257 513L257 520L386 520L386 475L514 475L514 493L643 493L643 494L771 494L771 516L900 516L900 529L900 601L900 601L771 601L771 601L643 601L643 601L514 601L514 601L386 601L386 601L257 601L257 601L129 601L129 601L0 601Z" fill="#560090"></path></svg>